<?xml version="1.0" standalone="no"?>
<!DOCTYPE svg PUBLIC "-//W3C//DTD SVG 20010904//EN"
 "http://www.w3.org/TR/2001/REC-SVG-20010904/DTD/svg10.dtd">
<svg version="1.0" xmlns="http://www.w3.org/2000/svg"
 width="500.000000pt" height="500.000000pt" viewBox="0 0 500.000000 500.000000"
 preserveAspectRatio="xMidYMid meet">
<metadata>
Created by potrace 1.14, written by Peter Selinger 2001-2017
</metadata>
<g transform="translate(0.000000,500.000000) scale(0.100000,-0.100000)"
fill="#000000" stroke="none">
<path d="M2480 4537 c0 -7 -10 -13 -22 -14 -13 -1 -34 -4 -48 -8 -14 -3 -30
-7 -36 -8 -6 -2 -19 -10 -28 -20 -10 -9 -23 -17 -29 -18 -48 -3 -154 -53 -161
-76 -3 -10 -26 -38 -51 -62 -25 -24 -48 -56 -52 -70 -3 -14 -12 -39 -21 -55
-13 -27 -13 -31 4 -43 10 -7 13 -13 8 -13 -5 0 -10 -8 -11 -17 -1 -10 -4 -32
-7 -50 -3 -19 0 -36 7 -42 7 -5 14 -26 15 -46 2 -20 11 -59 21 -88 10 -29 24
-72 31 -97 8 -25 17 -49 22 -54 17 -20 7 -28 -28 -23 -25 4 -37 1 -41 -10 -9
-23 14 -87 53 -144 19 -29 55 -99 79 -157 l45 -104 -32 -60 -33 -61 -173 -88
c-95 -48 -189 -93 -208 -99 -69 -23 -237 -145 -285 -207 -57 -73 -58 -75 -59
-175 -1 -46 -5 -108 -10 -138 -5 -30 -11 -75 -14 -100 -6 -44 -12 -81 -21
-130 -6 -29 -23 -175 -32 -275 -4 -38 -6 -124 -5 -190 0 -66 1 -140 1 -165 0
-35 6 -49 24 -65 24 -20 25 -24 31 -235 4 -118 8 -228 10 -245 2 -16 7 -62 10
-101 4 -39 8 -81 11 -92 2 -12 7 -68 10 -124 4 -57 9 -112 11 -123 2 -11 7
-33 9 -50 8 -47 25 -85 70 -155 22 -36 48 -81 58 -101 9 -20 31 -52 48 -70 23
-24 33 -48 39 -88 10 -60 18 -135 19 -163 1 -17 46 -18 796 -18 l794 0 6 33
c3 17 8 52 10 77 15 167 21 187 74 254 41 52 55 62 74 59 20 -4 26 1 37 29 8
18 27 50 43 71 27 34 28 41 17 63 -8 13 -17 24 -23 24 -5 0 -6 19 -3 42 9 75
16 151 21 233 11 173 16 231 20 260 2 17 7 66 10 110 4 44 13 87 20 95 13 15
19 45 31 145 8 74 14 106 25 150 6 22 12 62 14 90 2 27 7 91 11 140 5 50 9
182 8 295 0 204 0 206 -31 285 -16 44 -36 105 -43 135 -24 104 -114 274 -176
331 -51 48 -155 103 -349 188 -246 107 -233 100 -244 130 -5 14 -19 40 -30 56
l-19 30 29 60 c16 33 38 93 50 133 11 40 31 94 44 120 13 26 29 66 36 90 14
49 6 62 -37 54 -26 -5 -27 -3 -24 68 3 79 8 103 27 129 41 55 61 212 32 247
-8 10 -8 14 0 14 6 0 11 9 11 20 0 11 3 19 8 19 21 -4 20 4 -9 36 -18 19 -38
35 -44 35 -7 0 -22 9 -35 20 -13 11 -27 20 -32 20 -4 0 -8 6 -8 13 0 17 -42
66 -60 69 -8 2 -23 11 -33 20 -22 19 -111 43 -127 33 -5 -3 -10 -2 -10 4 0 6
-6 8 -14 5 -8 -3 -24 0 -36 6 -14 8 -25 8 -33 1 -8 -6 -18 -6 -27 -1 -21 13
-30 12 -30 -3z m-669 -2751 c-1 -4 5 -19 13 -35 9 -16 14 -30 12 -32 -2 -2 -6
-21 -9 -42 -7 -51 -13 -56 -15 -10 -1 21 -4 61 -8 88 -3 28 -3 47 1 43 4 -3 6
-9 6 -12z m12 -196 c-3 -11 -7 -20 -9 -20 -2 0 -4 9 -4 20 0 11 4 20 9 20 5 0
7 -9 4 -20z m-19 -186 c5 -105 4 -131 -10 -158 -35 -68 -76 -220 -70 -262 6
-46 -9 -114 -26 -114 -15 0 -4 207 16 308 9 42 33 273 35 335 1 11 9 17 24 17
24 0 24 -2 31 -126z m1467 -51 c3 -58 10 -120 14 -130 2 -7 0 -15 -4 -18 -13
-7 -36 105 -32 153 2 19 21 14 22 -5z m-1574 -515 c-3 -8 -6 -5 -6 6 -1 11 2
17 5 13 3 -3 4 -12 1 -19z m-4 -138 c4 -57 3 -89 -2 -81 -5 8 -7 20 -4 27 2 6
1 14 -4 17 -5 3 -8 25 -7 49 2 24 3 54 3 67 2 51 9 12 14 -79z"/>
</g>
</svg>
